<?xml version="1.0" standalone="no"?>
<!DOCTYPE svg PUBLIC "-//W3C//DTD SVG 20010904//EN"
 "http://www.w3.org/TR/2001/REC-SVG-20010904/DTD/svg10.dtd">
<svg version="1.0" xmlns="http://www.w3.org/2000/svg"
 width="500.000000pt" height="500.000000pt" viewBox="0 0 500.000000 500.000000"
 preserveAspectRatio="xMidYMid meet">
<metadata>
Created by potrace 1.14, written by Peter Selinger 2001-2017
</metadata>
<g transform="translate(0.000000,500.000000) scale(0.100000,-0.100000)"
fill="#000000" stroke="none">
<path d="M1448 3954 l-968 -484 0 -1000 0 -1000 975 -487 975 -488 965 482
c598 300 968 490 975 502 7 14 9 333 8 1003 l-3 983 -970 487 c-533 268 -974
487 -980 487 -5 0 -445 -218 -977 -485z m2786 -576 c14 -20 16 -116 16 -909 0
-488 -3 -895 -6 -904 -4 -9 -397 -212 -913 -469 l-906 -454 -896 448 c-492
247 -900 455 -907 463 -9 11 -12 225 -10 923 l3 909 905 455 905 455 897 -447
c570 -284 902 -455 912 -470z"/>
<path d="M2284 3942 c-72 -37 -137 -72 -145 -79 -8 -6 -98 -54 -200 -106 -102
-52 -203 -106 -225 -119 -21 -14 -127 -70 -234 -125 -107 -55 -231 -120 -275
-145 -44 -25 -116 -65 -160 -89 l-80 -44 -3 -777 -2 -777 22 -14 c78 -48 300
-168 460 -250 103 -52 200 -104 215 -115 16 -11 102 -56 192 -102 90 -45 196
-101 235 -124 39 -24 133 -75 209 -113 l137 -70 158 81 c86 45 176 93 198 108
23 15 127 70 232 122 105 53 215 111 244 129 29 19 132 74 228 122 172 86 384
207 395 226 10 15 17 1343 8 1454 l-8 100 -70 39 c-38 21 -106 60 -150 86 -44
27 -163 89 -265 140 -102 51 -198 102 -214 113 -16 11 -126 70 -245 130 -119
60 -223 115 -231 122 -19 16 -274 145 -286 145 -5 -1 -68 -31 -140 -68z m285
-151 c64 -38 194 -108 290 -156 96 -47 190 -97 210 -109 20 -13 117 -65 216
-115 99 -51 191 -101 205 -110 14 -10 75 -44 135 -76 61 -32 116 -62 123 -68
9 -7 12 -160 12 -702 0 -646 -1 -693 -17 -707 -18 -15 -51 -33 -403 -217 -102
-54 -204 -109 -226 -123 -23 -15 -127 -70 -232 -122 -105 -53 -219 -113 -254
-134 -35 -21 -96 -56 -136 -77 l-73 -38 -107 66 c-59 35 -189 106 -289 156
-100 50 -206 106 -235 124 -29 19 -143 80 -253 136 -256 130 -412 214 -427
229 -8 8 -11 203 -10 708 1 383 3 698 4 699 2 2 62 34 133 72 72 39 155 85
185 103 30 18 129 69 220 114 91 45 184 94 206 108 23 15 126 69 230 122 104
52 225 117 269 145 44 28 86 49 94 46 8 -3 66 -36 130 -74z"/>
<path d="M2831 2930 c-175 -47 -276 -149 -320 -322 -31 -119 -35 -193 -17
-294 37 -204 147 -337 321 -390 81 -25 311 -25 405 0 99 26 110 36 110 102 0
50 -2 55 -17 49 -126 -51 -159 -58 -273 -59 -100 -1 -120 2 -155 21 -119 64
-195 216 -195 391 0 57 26 181 50 236 22 52 78 117 126 147 70 43 218 43 383
0 l71 -19 0 63 0 63 -62 12 c-35 7 -128 14 -208 16 -121 3 -157 1 -219 -16z"/>
<path d="M1565 2908 c-3 -7 -4 -229 -3 -493 l3 -480 90 0 90 0 3 238 c1 130 6
237 10 237 13 0 41 -34 207 -250 86 -113 164 -211 173 -217 11 -9 54 -13 130
-13 l114 0 -28 38 c-15 20 -111 142 -212 270 -101 128 -182 238 -179 245 3 7
49 69 104 137 54 69 119 152 143 185 24 33 55 72 69 88 l25 27 -75 0 c-87 0
-73 10 -211 -160 -219 -272 -251 -310 -259 -310 -5 0 -9 104 -9 235 l0 235
-90 0 c-63 0 -92 -4 -95 -12z"/>
</g>
</svg>
